<?xml version="1.0" encoding="utf-8"?>
<!-- Generator: Adobe Illustrator 25.0.0, SVG Export Plug-In . SVG Version: 6.00 Build 0)  -->
<svg version="1.1" id="レイヤー_1" xmlns="http://www.w3.org/2000/svg" xmlns:xlink="http://www.w3.org/1999/xlink" x="0px"
	 y="0px" width="73px" height="30px" viewBox="0 0 73 30" style="enable-background:new 0 0 73 30;" xml:space="preserve">
<g>
	<path d="M32.6,10.5v1.8c-0.9-0.7-1.8-1.1-2.7-1.1c-1,0-1.9,0.4-2.6,1.1c-0.7,0.7-1.1,1.6-1.1,2.7c0,1.1,0.4,2,1.1,2.7
		c0.7,0.7,1.6,1.1,2.6,1.1c0.5,0,1-0.1,1.4-0.3c0.2-0.1,0.4-0.2,0.6-0.4c0.2-0.1,0.5-0.3,0.7-0.5v1.8c-0.9,0.5-1.8,0.7-2.7,0.7
		c-1.4,0-2.7-0.5-3.7-1.5c-1-1-1.5-2.2-1.5-3.7c0-1.3,0.4-2.4,1.3-3.4c1-1.2,2.4-1.8,4.1-1.8C30.9,9.8,31.8,10,32.6,10.5z"/>
	<path d="M36.1,10v8.7h3v1.4h-4.5V10H36.1z"/>
	<path d="M40,15c0-1.4,0.5-2.6,1.6-3.7c1-1,2.3-1.5,3.7-1.5c1.4,0,2.7,0.5,3.7,1.5c1,1,1.5,2.3,1.5,3.7c0,1.4-0.5,2.7-1.6,3.7
		c-1,1-2.3,1.5-3.8,1.5c-1.3,0-2.5-0.5-3.5-1.4C40.5,17.9,40,16.6,40,15z M41.5,15c0,1.1,0.4,2,1.1,2.7c0.7,0.7,1.6,1.1,2.6,1.1
		c1.1,0,2-0.4,2.7-1.1C48.6,17,49,16.1,49,15c0-1.1-0.4-2-1.1-2.7c-0.7-0.7-1.6-1.1-2.7-1.1c-1,0-1.9,0.4-2.7,1.1
		C41.9,13,41.5,13.9,41.5,15z"/>
	<path d="M58.1,11.5l-1.2,0.7c-0.2-0.4-0.5-0.7-0.7-0.8c-0.2-0.1-0.5-0.2-0.8-0.2c-0.4,0-0.8,0.1-1.1,0.4c-0.3,0.2-0.4,0.5-0.4,0.9
		c0,0.5,0.4,0.9,1.1,1.2l1,0.4c0.8,0.3,1.4,0.7,1.8,1.2c0.4,0.5,0.6,1.1,0.6,1.8c0,0.9-0.3,1.7-0.9,2.3c-0.6,0.6-1.4,0.9-2.3,0.9
		c-0.9,0-1.6-0.3-2.2-0.8c-0.6-0.5-0.9-1.2-1.1-2.2l1.5-0.3c0.1,0.6,0.2,1,0.4,1.2c0.3,0.4,0.8,0.7,1.4,0.7c0.5,0,0.9-0.2,1.2-0.5
		c0.3-0.3,0.5-0.7,0.5-1.2c0-0.2,0-0.4-0.1-0.5c-0.1-0.2-0.1-0.3-0.3-0.5c-0.1-0.1-0.3-0.3-0.4-0.4c-0.2-0.1-0.4-0.2-0.7-0.3l-1-0.4
		c-1.4-0.6-2.1-1.4-2.1-2.6c0-0.8,0.3-1.4,0.9-1.9c0.6-0.5,1.3-0.8,2.2-0.8C56.6,9.8,57.5,10.4,58.1,11.5z"/>
	<path d="M65.8,11.4h-4v2.4h3.9v1.4h-3.9v3.4h4v1.4h-5.6V10h5.6V11.4z"/>
</g>
<g>
	<path d="M18.2,19.1l-1.4,1.4l-4.1-4.1l-4.1,4.1l-1.4-1.4l4.1-4.1l-4.1-4.1l1.4-1.4l4.1,4.1l4.1-4.1l1.4,1.4L14.1,15L18.2,19.1z"/>
</g>
</svg>
